:FULLY-SPECIFIED
:FORCE-ALL-JOINTS-BE-3DOF
:DEGREES
1835
root 6.36116 13.9641 27.821 -21.3686 54.2454 -23.2725
lfemur -53.3214 25.867 1.90519
ltibia 63.6921 -0 0
lfoot -2.9488 -7.92373 0.343496
ltoes -18.6659 0 0
rfemur 4.16157 -5.09263 18.0373
rtibia 48.8915 -0 0
rfoot -26.8999 -29.6329 -0.0686
rtoes -28.7039 0 0
lowerback 14.0837 4.22711 6.63122
upperback -0.474662 7.22297 4.64647
thorax -8.23543 3.35951 -0.247393
lowerneck -3.60781 11.0527 3.86017
upperneck 7.08755 14.8158 -2.78871
head 3.50996 7.36705 -0.901975
lclavicle -3.42476e-14 -4.98701e-14 0
lhumerus 65.6216 15.6339 109.1
lradius 7.75389 -0 0
lwrist -86.482 0 0
lhand -33.3958 42.3656 0.00341531
lfingers 7.12502 -0 0
lthumb -6.59546 72.2427 0.00744971
rclavicle -3.42476e-14 -4.98701e-14 0
rhumerus -73.3541 9.70743 -82.644
rradius 127.489 -0 0
rwrist -40.6816 180 180
rhand -62.0747 -80.1976 2.75353
rfingers 7.12502 -0 0
rthumb -38.233 -104.038 0.597255
1836
root 6.43034 13.951 27.8257 -21.2455 54.1156 -23.3296
lfemur -53.5478 26.3559 1.88367
ltibia 64.6199 -0 0
lfoot -3.65129 -8.04099 0.307941
ltoes -19.5498 0 0
rfemur 4.24792 -5.00825 17.9805
rtibia 48.6208 -0 0
rfoot -26.6889 -29.7604 -0.0614542
rtoes -28.907 0 0
lowerback 14.0821 4.32519 6.59914
upperback -0.496746 7.35299 4.67872
thorax -8.26066 3.42362 -0.221414
lowerneck -3.49438 11.2012 4.0019
upperneck 7.0221 15.02 -2.93095
head 3.50014 7.46863 -0.964113
lclavicle -3.42476e-14 -4.98701e-14 0
lhumerus 65.2191 15.6875 109.13
lradius 8.09383 -0 0
lwrist -86.6198 0 0
lhand -33.1099 42.1782 -0.0015325
lfingers 7.12502 -0 0
lthumb -6.31954 72.062 0.00226078
rclavicle -3.42476e-14 -4.98701e-14 0
rhumerus -73.3462 9.93679 -82.719
rradius 127.324 -0 0
rwrist -41.3897 180 180
rhand -61.8279 -77.7959 2.42231
rfingers 7.12502 -0 0
rthumb -37.4235 -101.855 0.613597
1837
root 6.49953 13.9378 27.8304 -21.1259 53.9894 -23.3851
lfemur -53.769 26.8254 1.86147
ltibia 65.5173 -0 0
lfoot -4.32973 -8.14989 0.272101
ltoes -20.4043 0 0
rfemur 4.33247 -4.92687 17.9259
rtibia 48.3586 -0 0
rfoot -26.4873 -29.8824 -0.0541304
rtoes -29.1037 0 0
lowerback 14.0799 4.41997 6.56972
upperback -0.517915 7.47889 4.71015
thorax -8.28435 3.48567 -0.196843
lowerneck -3.38356 11.3469 4.14025
upperneck 6.95894 15.2206 -3.0703
head 3.49104 7.56845 -1.02465
lclavicle -3.42476e-14 -4.98701e-14 0
lhumerus 64.8323 15.7361 109.155
lradius 8.41985 -0 0
lwrist -86.7512 0 0
lhand -32.8342 41.9962 -0.00540608
lfingers 7.12502 -0 0
lthumb -6.05348 71.8865 -0.00190578
rclavicle -3.42476e-14 -4.98701e-14 0
rhumerus -73.3433 10.1596 -82.801
rradius 127.158 -0 0
rwrist -42.1223 180 180
rhand -61.5612 -75.4605 2.10608
rfingers 7.12502 -0 0
rthumb -36.6097 -99.7403 0.608868
1838
root 6.56872 13.9247 27.835 -21.0097 53.8663 -23.4384
lfemur -53.9847 27.274 1.83893
ltibia 66.3803 -0 0
lfoot -4.98117 -8.25038 0.236365
ltoes -21.2255 0 0
rfemur 4.41573 -4.84799 17.8737
rtibia 48.1057 -0 0
rfoot -26.2964 -29.9987 -0.0467421
rtoes -29.2935 0 0
lowerback 14.0769 4.51101 6.54337
upperback -0.538064 7.60011 4.74073
thorax -8.30635 3.54539 -0.173803
lowerneck -3.27576 11.4899 4.27505
upperneck 6.8984 15.4175 -3.20668
head 3.48274 7.66653 -1.08353
lclavicle -3.42476e-14 -4.98701e-14 0
lhumerus 64.4667 15.7795 109.175
lradius 8.72795 -0 0
lwrist -86.8784 0 0
lhand -32.5705 41.8207 -0.00822907
lfingers 7.12502 -0 0
lthumb -5.79892 71.7171 -0.00506618
rclavicle -3.42476e-14 -4.98701e-14 0
rhumerus -73.3483 10.3743 -82.8912
rradius 126.996 -0 0
rwrist -42.8854 180 180
rhand -61.2687 -73.1925 1.80575
rfingers 7.12502 -0 0
rthumb -35.7949 -97.7016 0.584526
1839
root 6.63791 13.9115 27.8397 -20.8967 53.7456 -23.4887
lfemur -54.1945 27.6998 1.81643
ltibia 67.205 -0 0
lfoot -5.60268 -8.34239 0.201123
ltoes -22.0099 0 0
rfemur 4.49822 -4.77112 17.824
rtibia 47.8629 -0 0
rfoot -26.1176 -30.1086 -0.0394072
rtoes -29.4762 0 0
lowerback 14.0733 4.59787 6.52052
upperback -0.557086 7.71614 4.77048
thorax -8.32646 3.60251 -0.152418
lowerneck -3.17134 11.6301 4.40613
upperneck 6.84082 15.611 -3.34004
head 3.47532 7.76289 -1.1407
lclavicle -3.42476e-14 -4.98701e-14 0
lhumerus 64.1276 15.8178 109.191
lradius 9.01412 -0 0
lwrist -87.0032 0 0
lhand -32.3203 41.6525 -0.0100412
lfingers 7.12502 -0 0
lthumb -5.55748 71.5549 -0.00725176
rclavicle -3.42476e-14 -4.98701e-14 0
rhumerus -73.3637 10.5795 -82.9909
rradius 126.838 -0 0
rwrist -43.6845 180 180
rhand -60.9446 -70.9927 1.52194
rfingers 7.12502 -0 0
rthumb -34.9822 -95.7488 0.542501
1840
root 6.7071 13.8984 27.8444 -20.7869 53.6264 -23.5354
lfemur -54.3978 28.1013 1.79436
ltibia 67.9872 -0 0
lfoot -6.19132 -8.42588 0.166764
ltoes -22.7537 0 0
rfemur 4.58046 -4.69575 17.7773
rtibia 47.6312 -0 0
rfoot -25.9522 -30.2119 -0.0322482
rtoes -29.6515 0 0
lowerback 14.069 4.68012 6.50158
upperback -0.574876 7.82645 4.79939
thorax -8.34452 3.65676 -0.13281
lowerneck -3.0707 11.7676 4.53333
upperneck 6.78652 15.801 -3.47027
head 3.46887 7.85753 -1.19608
lclavicle -3.42476e-14 -4.98701e-14 0
lhumerus 63.8206 15.8509 109.205
lradius 9.27438 -0 0
lwrist -87.1277 0 0
lhand -32.0854 41.4929 -0.010896
lfingers 7.12502 -0 0
lthumb -5.33079 71.4009 -0.00850696
rclavicle -3.42476e-14 -4.98701e-14 0
rhumerus -73.3925 10.7738 -83.1014
rradius 126.688 -0 0
rwrist -44.5254 180 180
rhand -60.583 -68.8622 1.25497
rfingers 7.12502 -0 0
rthumb -34.1745 -93.8911 0.485167
1841
root 6.77629 13.8852 27.8491 -20.6801 53.5082 -23.5777
lfemur -54.5945 28.4767 1.77313
ltibia 68.7232 -0 0
lfoot -6.74415 -8.50083 0.13367
ltoes -23.4532 0 0
rfemur 4.66296 -4.62138 17.7336
rtibia 47.4114 -0 0
rfoot -25.8015 -30.3081 -0.0253899
rtoes -29.8192 0 0
lowerback 14.0638 4.7573 6.48699
upperback -0.591329 7.9305 4.82745
thorax -8.36036 3.70788 -0.1151
lowerneck -2.97421 11.9025 4.65648
upperneck 6.73584 15.9877 -3.59732
head 3.46345 7.95046 -1.24961
lclavicle -3.42476e-14 -4.98701e-14 0
lhumerus 63.5509 15.8787 109.218
lradius 9.50472 -0 0
lwrist -87.2538 0 0
lhand -31.8675 41.3426 -0.0108588
lfingers 7.12502 -0 0
lthumb -5.12049 71.256 -0.00888703
rclavicle -3.42476e-14 -4.98701e-14 0
rhumerus -73.4372 10.9556 -83.224
rradius 126.549 -0 0
rwrist -45.4139 180 180
rhand -60.1782 -66.802 1.00495
rfingers 7.12502 -0 0
rthumb -33.3747 -92.1379 0.415314
1842
root 6.84548 13.8721 27.8538 -20.5763 53.3901 -23.6151
lfemur -54.7839 28.8244 1.75314
ltibia 69.4088 -0 0
lfoot -7.25824 -8.56719 0.102218
ltoes -24.1047 0 0
rfemur 4.74625 -4.54752 17.6933
rtibia 47.2043 -0 0
rfoot -25.6667 -30.3968 -0.0189586
rtoes -29.979 0 0
lowerback 14.0579 4.82899 6.47717
upperback -0.606339 8.02776 4.85467
thorax -8.37379 3.75559 -0.0994118
lowerneck -2.88228 12.0348 4.77542
upperneck 6.6891 16.171 -3.72109
head 3.45916 8.04171 -1.30125
lclavicle -3.42476e-14 -4.98701e-14 0
lhumerus 63.3242 15.9014 109.23
lradius 9.70114 -0 0
lwrist -87.3836 0 0
lhand -31.6683 41.2029 -0.0100032
lfingers 7.12502 -0 0
lthumb -4.9282 71.1213 -0.00845542
rclavicle -3.42476e-14 -4.98701e-14 0
rhumerus -73.5007 11.1235 -83.36
rradius 126.423 -0 0
rwrist -46.3556 180 180
rhand -59.7242 -64.8132 0.771745
rfingers 7.12502 -0 0
rthumb -32.5854 -90.4982 0.336107
1843
root 6.91466 13.8589 27.8585 -20.4755 53.2716 -23.6467
lfemur -54.9657 29.1427 1.73483
ltibia 70.0401 -0 0
lfoot -7.73063 -8.62495 0.0727757
ltoes -24.7045 0 0
rfemur 4.83083 -4.47366 17.6565
rtibia 47.0107 -0 0
rfoot -25.5493 -30.4775 -0.0130808
rtoes -30.1305 0 0
lowerback 14.0511 4.89474 6.47254
upperback -0.619801 8.11772 4.88105
thorax -8.38465 3.79963 -0.085867
lowerneck -2.79527 12.1647 4.88996
upperneck 6.64665 16.3511 -3.84152
head 3.45607 8.13129 -1.35091
lclavicle -3.42476e-14 -4.98701e-14 0
lhumerus 63.1457 15.9187 109.242
lradius 9.85965 -0 0
lwrist -87.5189 0 0
lhand -31.4894 41.0746 -0.00840877
lfingers 7.12502 -0 0
lthumb -4.75555 70.9978 -0.00728094
rclavicle -3.42476e-14 -4.98701e-14 0
rhumerus -73.5857 11.2758 -83.5107
rradius 126.312 -0 0
rwrist -47.3564 180 180
rhand -59.2152 -62.8968 0.555089
rfingers 7.12502 -0 0
rthumb -31.8089 -88.9812 0.251048
1844
root 6.98385 13.8458 27.8631 -20.3775 53.1518 -23.672
lfemur -55.1394 29.4299 1.71862
ltibia 70.6131 -0 0
lfoot -8.1584 -8.67408 0.0456999
ltoes -25.2489 0 0
rfemur 4.91722 -4.3993 17.6235
rtibia 46.8316 -0 0
rfoot -25.4506 -30.5499 -0.00788129
rtoes -30.2735 0 0
lowerback 14.0434 4.95411 6.47352
upperback -0.63161 8.19983 4.90658
thorax -8.39276 3.83973 -0.0745878
lowerneck -2.71359 12.2921 4.99994
upperneck 6.6088 16.528 -3.9585
head 3.45425 8.2192 -1.39855
lclavicle -3.42476e-14 -4.98701e-14 0
lhumerus 63.021 15.9309 109.256
lradius 9.97624 -0 0
lwrist -87.6617 0 0
lhand -31.3325 40.9589 -0.00615736
lfingers 7.12502 -0 0
lthumb -4.60417 70.8863 -0.00543455
rclavicle -3.42476e-14 -4.98701e-14 0
rhumerus -73.6949 11.4111 -83.6774
rradius 126.219 -0 0
rwrist -48.4219 180 180
rhand -58.6457 -61.0539 0.354576
rfingers 7.12502 -0 0
rthumb -31.0478 -87.5959 0.163938
1845
root 7.05304 13.8326 27.8678 -20.2824 53.03 -23.6903
lfemur -55.3047 29.6843 1.70496
ltibia 71.1238 -0 0
lfoot -8.5386 -8.71457 0.0213326
ltoes -25.7342 0 0
rfemur 5.00593 -4.32395 17.5947
rtibia 46.6677 -0 0
rfoot -25.3718 -30.6135 -0.00348199
rtoes -30.4077 0 0
lowerback 14.0348 5.00667 6.48054
upperback -0.641663 8.27357 4.93126
thorax -8.39795 3.87562 -0.0656967
lowerneck -2.63761 12.4172 5.10519
upperneck 6.5759 16.7017 -4.07197
head 3.4538 8.30547 -1.44409
lclavicle -3.42476e-14 -4.98701e-14 0
lhumerus 62.9555 15.9377 109.272
lradius 10.0469 -0 0
lwrist -87.8142 0 0
lhand -31.1994 40.8567 -0.00332938
lfingers 7.12502 -0 0
lthumb -4.47568 70.7881 -0.00298599
rclavicle -3.42476e-14 -4.98701e-14 0
rhumerus -73.831 11.5277 -83.8615
rradius 126.146 -0 0
rwrist -49.5578 180 180
rhand -58.0098 -59.2856 0.169721
rfingers 7.12502 -0 0
rthumb -30.3041 -86.3512 0.0788337
